<svg width="393" height="147" viewBox="0 0 393 147" fill="none" xmlns="http://www.w3.org/2000/svg">
<rect x="393" y="109" width="59" height="71" rx="10" transform="rotate(-180 393 109)" fill="#006C64"/>
<path d="M69.632 121C68.6933 117.928 67.6267 114.771 66.432 111.528C65.3227 108.285 64.2133 105.043 63.104 101.8H28.544C27.4347 105.043 26.2827 108.285 25.088 111.528C23.9787 114.771 22.9547 117.928 22.016 121H1.28C4.608 111.443 7.76533 102.611 10.752 94.504C13.7387 86.3973 16.64 78.76 19.456 71.592C22.3573 64.424 25.1733 57.64 27.904 51.24C30.72 44.7547 33.6213 38.44 36.608 32.296H55.68C58.5813 38.44 61.44 44.7547 64.256 51.24C67.072 57.64 69.888 64.424 72.704 71.592C75.6053 78.76 78.5493 86.3973 81.536 94.504C84.5227 102.611 87.68 111.443 91.008 121H69.632ZM45.696 52.392C45.2693 53.672 44.6293 55.4213 43.776 57.64C42.9227 59.8587 41.9413 62.4187 40.832 65.32C39.7227 68.2213 38.4853 71.4213 37.12 74.92C35.84 78.4187 34.5173 82.088 33.152 85.928H58.368C57.0027 82.088 55.68 78.4187 54.4 74.92C53.12 71.4213 51.8827 68.2213 50.688 65.32C49.5787 62.4187 48.5973 59.8587 47.744 57.64C46.8907 55.4213 46.208 53.672 45.696 52.392ZM95.45 36.904L114.522 33.832V53.672H137.434V69.544H114.522V93.224C114.522 97.2347 115.205 100.435 116.57 102.824C118.021 105.213 120.879 106.408 125.146 106.408C127.194 106.408 129.285 106.237 131.418 105.896C133.637 105.469 135.642 104.915 137.434 104.232L140.122 119.08C137.818 120.019 135.258 120.829 132.442 121.512C129.626 122.195 126.17 122.536 122.074 122.536C116.869 122.536 112.559 121.853 109.146 120.488C105.733 119.037 103.002 117.075 100.954 114.6C98.906 112.04 97.4553 108.968 96.602 105.384C95.834 101.8 95.45 97.832 95.45 93.48V36.904ZM142.145 87.848C142.145 81.8747 143.041 76.6693 144.833 72.232C146.71 67.7093 149.142 63.9547 152.129 60.968C155.116 57.9813 158.529 55.72 162.369 54.184C166.294 52.648 170.305 51.88 174.401 51.88C183.958 51.88 191.51 54.824 197.057 60.712C202.604 66.5147 205.377 75.0907 205.377 86.44C205.377 87.5493 205.334 88.7867 205.249 90.152C205.164 91.432 205.078 92.584 204.993 93.608H161.729C162.156 97.5333 163.99 100.648 167.233 102.952C170.476 105.256 174.828 106.408 180.289 106.408C183.788 106.408 187.201 106.109 190.529 105.512C193.942 104.829 196.716 104.019 198.849 103.08L201.409 118.568C200.385 119.08 199.02 119.592 197.313 120.104C195.606 120.616 193.686 121.043 191.553 121.384C189.505 121.811 187.286 122.152 184.897 122.408C182.508 122.664 180.118 122.792 177.729 122.792C171.67 122.792 166.38 121.896 161.857 120.104C157.42 118.312 153.708 115.88 150.721 112.808C147.82 109.651 145.644 105.939 144.193 101.672C142.828 97.4053 142.145 92.7973 142.145 87.848ZM186.945 80.552C186.86 78.9307 186.561 77.352 186.049 75.816C185.622 74.28 184.897 72.9147 183.873 71.72C182.934 70.5253 181.697 69.544 180.161 68.776C178.71 68.008 176.876 67.624 174.657 67.624C172.524 67.624 170.689 68.008 169.153 68.776C167.617 69.4587 166.337 70.3973 165.313 71.592C164.289 72.7867 163.478 74.1947 162.881 75.816C162.369 77.352 161.985 78.9307 161.729 80.552H186.945ZM216.255 121V32.296H275.647V49.064H236.223V67.624H271.295V84.392H236.223V121H216.255ZM310.235 122.28C304.688 122.195 300.166 121.597 296.667 120.488C293.254 119.379 290.523 117.843 288.475 115.88C286.512 113.832 285.147 111.4 284.379 108.584C283.696 105.683 283.355 102.44 283.355 98.856V24.744L302.427 21.672V95.016C302.427 96.7227 302.555 98.2587 302.811 99.624C303.067 100.989 303.536 102.141 304.219 103.08C304.987 104.019 306.054 104.787 307.419 105.384C308.784 105.981 310.619 106.365 312.923 106.536L310.235 122.28Z" fill="#060A16"/>
<rect x="381" y="121" width="59" height="71" rx="10" transform="rotate(-180 381 121)" fill="#060A16"/>
</svg>
