<svg width="760" height="180" viewBox="0 0 760 180" fill="none" xmlns="http://www.w3.org/2000/svg">
  <rect width="760" height="180" fill="white" fill-opacity="0"/>

  <defs>
    <linearGradient id="cvBlue" x1="25" y1="22" x2="145" y2="158" gradientUnits="userSpaceOnUse">
      <stop stop-color="#5BC8FF"/>
      <stop offset="0.55" stop-color="#2563EB"/>
      <stop offset="1" stop-color="#1D4ED8"/>
    </linearGradient>
    <linearGradient id="cvBlue2" x1="0" y1="0" x2="1" y2="1">
      <stop stop-color="#60A5FA"/>
      <stop offset="1" stop-color="#2563EB"/>
    </linearGradient>
  </defs>

  <!-- Original AI / comparison mark -->
  <g transform="translate(26 28)">
    <path d="M54 0H112C120.837 0 128 7.16344 128 16V32C128 40.8366 120.837 48 112 48H78C58.67 48 43 63.67 43 83V123C43 131.837 35.8366 139 27 139H16C7.16344 139 0 131.837 0 123V54C0 24.1766 24.1766 0 54 0Z" fill="url(#cvBlue)"/>
    <path d="M137 48H157C188.48 48 214 73.5198 214 105C214 136.48 188.48 162 157 162H137C128.163 162 121 154.837 121 146V130C121 121.163 128.163 114 137 114H151C159.284 114 166 107.284 166 99C166 90.7157 159.284 84 151 84H137C128.163 84 121 76.8366 121 68V64C121 55.1634 128.163 48 137 48Z" fill="url(#cvBlue)"/>
    <circle cx="83" cy="93" r="28" fill="url(#cvBlue2)"/>
  </g>

  <!-- Wordmark -->
  <g transform="translate(286 115)">
    <text x="0" y="0"
      font-family="Inter, ui-sans-serif, system-ui, -apple-system, BlinkMacSystemFont, 'Segoe UI', Arial, sans-serif"
      font-size="76"
      font-weight="900"
      letter-spacing="5"
      fill="#071433">COMP</text>

    <text x="252" y="0"
      font-family="Inter, ui-sans-serif, system-ui, -apple-system, BlinkMacSystemFont, 'Segoe UI', Arial, sans-serif"
      font-size="76"
      font-weight="900"
      letter-spacing="5"
      fill="#2563EB">A</text>

    <text x="314" y="0"
      font-family="Inter, ui-sans-serif, system-ui, -apple-system, BlinkMacSystemFont, 'Segoe UI', Arial, sans-serif"
      font-size="76"
      font-weight="900"
      letter-spacing="5"
      fill="#071433">R</text>

    <text x="373" y="0"
      font-family="Inter, ui-sans-serif, system-ui, -apple-system, BlinkMacSystemFont, 'Segoe UI', Arial, sans-serif"
      font-size="76"
      font-weight="900"
      letter-spacing="5"
      fill="#2563EB">A</text>

    <text x="436" y="0"
      font-family="Inter, ui-sans-serif, system-ui, -apple-system, BlinkMacSystemFont, 'Segoe UI', Arial, sans-serif"
      font-size="76"
      font-weight="900"
      letter-spacing="5"
      fill="#071433">VY</text>
  </g>
</svg>
